<svg width="42" height="42" viewBox="0 0 42 42" fill="none" xmlns="http://www.w3.org/2000/svg">
<g clip-path="url(#clip0_11418_1861)">
<path d="M39.375 3.93291L28.8658 3.93295V1.31713C28.8658 0.591978 28.2785 0.00463486 27.5533 0.00463486C26.8282 0.00463486 26.2408 0.591978 26.2408 1.31713V3.93229H15.7408V1.31713C15.7408 0.591978 15.1535 0.00463486 14.4283 0.00463486C13.7032 0.00463486 13.1158 0.591978 13.1158 1.31713V3.93229H2.625C1.17534 3.93229 0 5.10763 0 6.55729V39.3698C0 40.8194 1.17534 41.9948 2.625 41.9948H39.375C40.8247 41.9948 42 40.8194 42 39.3698V6.55729C42 5.10825 40.8247 3.93291 39.375 3.93291ZM39.375 39.3698H2.625V6.55729H13.1158V7.87963C13.1158 8.60475 13.7032 9.19213 14.4283 9.19213C15.1535 9.19213 15.7408 8.60475 15.7408 7.87963V6.55795H26.2408V7.88029C26.2408 8.60545 26.8282 9.19279 27.5533 9.19279C28.2785 9.19279 28.8658 8.60545 28.8658 7.88029V6.55795H39.375V39.3698ZM30.1875 20.9954H32.8125C33.537 20.9954 34.125 20.4074 34.125 19.6829V17.0579C34.125 16.3334 33.537 15.7454 32.8125 15.7454H30.1875C29.463 15.7454 28.875 16.3334 28.875 17.0579V19.6829C28.875 20.4074 29.463 20.9954 30.1875 20.9954ZM30.1875 31.4947H32.8125C33.537 31.4947 34.125 30.9074 34.125 30.1822V27.5572C34.125 26.8327 33.537 26.2447 32.8125 26.2447H30.1875C29.463 26.2447 28.875 26.8327 28.875 27.5572V30.1822C28.875 30.9081 29.463 31.4947 30.1875 31.4947ZM22.3125 26.2447H19.6875C18.963 26.2447 18.375 26.8327 18.375 27.5572V30.1822C18.375 30.9074 18.963 31.4947 19.6875 31.4947H22.3125C23.037 31.4947 23.625 30.9074 23.625 30.1822V27.5572C23.625 26.8334 23.037 26.2447 22.3125 26.2447ZM22.3125 15.7454H19.6875C18.963 15.7454 18.375 16.3334 18.375 17.0579V19.6829C18.375 20.4074 18.963 20.9954 19.6875 20.9954H22.3125C23.037 20.9954 23.625 20.4074 23.625 19.6829V17.0579C23.625 16.3327 23.037 15.7454 22.3125 15.7454ZM11.8125 15.7454H9.1875C8.463 15.7454 7.875 16.3334 7.875 17.0579V19.6829C7.875 20.4074 8.463 20.9954 9.1875 20.9954H11.8125C12.537 20.9954 13.125 20.4074 13.125 19.6829V17.0579C13.125 16.3327 12.537 15.7454 11.8125 15.7454ZM11.8125 26.2447H9.1875C8.463 26.2447 7.875 26.8327 7.875 27.5572V30.1822C7.875 30.9074 8.463 31.4947 9.1875 31.4947H11.8125C12.537 31.4947 13.125 30.9074 13.125 30.1822V27.5572C13.125 26.8334 12.537 26.2447 11.8125 26.2447Z" fill="#005F15"/>
</g>
<defs>
<clipPath id="clip0_11418_1861">
<rect width="42" height="42" fill="white"/>
</clipPath>
</defs>
</svg>
