<svg width="35" height="35" viewBox="0 0 35 35" fill="none" xmlns="http://www.w3.org/2000/svg">
<path d="M3.09102 19.7254C4.1731 26.6977 10.2398 32.0775 17.5008 32.0775C25.5202 32.0775 32.0812 25.5165 32.0812 17.4971C32.0812 9.47771 25.5216 2.91667 17.5023 2.91667C12.6927 2.91667 8.4606 5.25146 5.83268 8.75V2.91813L2.92039 2.91667L2.91602 13.125H13.1243V10.2083L8.45914 10.2069C10.4993 7.58479 13.8564 5.83333 17.5023 5.83333C23.916 5.83333 29.166 11.0833 29.166 17.4971C29.166 23.9108 23.916 29.1623 17.5008 29.1623C11.8454 29.1623 7.09997 25.0877 6.05435 19.7254H3.09102Z" fill="#005F15"/>
<path d="M16.0449 10.2069V17.939L20.713 24.2054L23.0464 22.4598L18.9616 17.0625V10.2069H16.0449Z" fill="#005F15"/>
</svg>
