<svg width="43" height="43" viewBox="0 0 43 43" fill="none" xmlns="http://www.w3.org/2000/svg">
<path d="M21.4995 32.25L13.3161 20.6938C11.9766 19.1122 11.114 17.1827 10.8287 15.1299C10.5435 13.0771 10.8473 10.9855 11.7048 9.09874C12.5623 7.21193 13.9382 5.60758 15.6723 4.47252C17.4063 3.33747 19.4272 2.71843 21.4995 2.6875C24.3721 2.71589 27.1164 3.88155 29.1313 5.92918C31.1461 7.97681 32.2674 10.7395 32.2495 13.6122C32.2506 16.1182 31.3974 18.5497 29.8308 20.5056L21.4995 32.25ZM21.4995 5.375C19.3386 5.39982 17.2758 6.28119 15.7641 7.8256C14.2525 9.37001 13.4155 11.4512 13.437 13.6122C13.446 15.5846 14.1556 17.4896 15.4392 18.9872L21.4995 27.5738L27.7211 18.8125C28.9037 17.3363 29.5525 15.5036 29.562 13.6122C29.5835 11.4512 28.7465 9.37001 27.2349 7.8256C25.7232 6.28119 23.6605 5.39982 21.4995 5.375Z" fill="#005F15"/>
<path d="M21.5 14.7812C22.9843 14.7812 24.1875 13.578 24.1875 12.0938C24.1875 10.6095 22.9843 9.40625 21.5 9.40625C20.0157 9.40625 18.8125 10.6095 18.8125 12.0938C18.8125 13.578 20.0157 14.7812 21.5 14.7812Z" fill="#005F15"/>
<path d="M37.625 16.125H34.9375V18.8125H37.625V37.625H5.375V18.8125H8.0625V16.125H5.375C4.66223 16.125 3.97865 16.4081 3.47465 16.9122C2.97065 17.4162 2.6875 18.0997 2.6875 18.8125V37.625C2.6875 38.3378 2.97065 39.0213 3.47465 39.5253C3.97865 40.0294 4.66223 40.3125 5.375 40.3125H37.625C38.3378 40.3125 39.0213 40.0294 39.5253 39.5253C40.0294 39.0213 40.3125 38.3378 40.3125 37.625V18.8125C40.3125 18.0997 40.0294 17.4162 39.5253 16.9122C39.0213 16.4081 38.3378 16.125 37.625 16.125Z" fill="#005F15"/>
</svg>
