<svg width="151" height="51" viewBox="0 0 151 51" fill="none" xmlns="http://www.w3.org/2000/svg">
<rect x="0.191406" y="0.953125" width="150.406" height="49.1982" rx="17.5" fill="#080809"/>
<g clip-path="url(#clip0_11418_2131)">
<path d="M40.2642 24.8518L26.1464 38.4463C25.4853 37.9945 25.0928 37.243 25.0997 36.4423V13.2614C25.0928 12.4607 25.4853 11.7091 26.1464 11.2573L40.2642 24.8518Z" fill="#2196F3"/>
<path d="M45.2043 20.1036L40.2643 24.8521L26.1465 11.2576C26.1997 11.2164 26.2551 11.178 26.3124 11.1427C27.0585 10.6905 27.9905 10.6759 28.7505 11.1044L45.2043 20.1036Z" fill="#4CAF50"/>
<path d="M51.1903 24.852C51.1995 25.7559 50.7083 26.5909 49.9139 27.0221L45.2036 29.6005L40.2637 24.852L45.2036 20.1035L49.9139 22.682C50.7083 23.1132 51.1995 23.9481 51.1903 24.852Z" fill="#F0BB1F"/>
<path d="M45.2043 29.6006L28.7505 38.5997C27.9889 39.0216 27.0604 39.007 26.3124 38.5614C26.2551 38.5261 26.1997 38.4878 26.1465 38.4466L40.2644 24.8521L45.2043 29.6006Z" fill="#F15A2B"/>
</g>
<path d="M67.6968 17.6528H63.7497V19.2271H65.8525C65.5714 19.9805 64.8854 20.4416 63.8396 20.4416C62.3103 20.4416 61.3657 19.4633 61.3657 18.1251C61.3657 16.7419 62.3552 15.7635 63.6822 15.7635C64.5706 15.7635 65.279 16.1684 65.6051 16.6857L67.1345 15.8085C66.471 14.7515 65.2003 14.0093 63.6934 14.0093C61.3769 14.0093 59.5664 15.831 59.5664 18.1138C59.5664 20.3741 61.3432 22.1959 63.8171 22.1959C66.0212 22.1959 67.6968 20.734 67.6968 18.3275V17.6528Z" fill="white"/>
<path d="M69.9481 20.3067V18.9122H72.7594V17.2029H69.9481V15.8985H73.0406V14.1667H68.1489V22.0384H73.0968V20.3067H69.9481Z" fill="white"/>
<path d="M78.835 14.1667H72.9874V15.8985H75.0116V22.0384H76.8108V15.8985H78.835V14.1667Z" fill="white"/>
<path d="M81.3094 14.1667V22.0384H83.1086V14.1667H81.3094Z" fill="white"/>
<path d="M89.1842 14.1667H83.3366V15.8985H85.3608V22.0384H87.16V15.8985H89.1842V14.1667Z" fill="white"/>
<path d="M95.4145 22.1959C97.6748 22.1959 99.5078 20.4191 99.5078 18.1026C99.5078 15.786 97.6748 14.0093 95.4145 14.0093C93.1542 14.0093 91.3212 15.786 91.3212 18.1026C91.3212 20.4191 93.1542 22.1959 95.4145 22.1959ZM95.4145 20.4416C94.1326 20.4416 93.1205 19.5082 93.1205 18.1026C93.1205 16.6969 94.1326 15.7635 95.4145 15.7635C96.6965 15.7635 97.7086 16.6969 97.7086 18.1026C97.7086 19.5082 96.6965 20.4416 95.4145 20.4416Z" fill="white"/>
<path d="M104.344 14.1667V18.4399L101.308 14.1667H99.9586V22.0384H101.758V17.7652L104.794 22.0384H106.144V14.1667H104.344Z" fill="white"/>
<path d="M67.6968 31.0234V31.3271C67.6968 32.3091 67.3482 33.1376 66.651 33.8123C65.9537 34.4795 65.0354 34.8131 63.8959 34.8131C62.6964 34.8131 61.7068 34.4233 60.9271 33.6436C60.1474 32.8564 59.7576 31.8931 59.7576 30.7535C59.7576 29.614 60.1437 28.6544 60.9158 27.8747C61.688 27.0876 62.6664 26.694 63.8509 26.694C64.5706 26.694 65.2303 26.8664 65.83 27.2113C66.4373 27.5561 66.9058 28.0172 67.2357 28.5944L66.7072 28.9093C66.4448 28.4145 66.0549 28.0172 65.5377 27.7173C65.0279 27.4174 64.4656 27.2675 63.8509 27.2675C62.8313 27.2675 61.9916 27.6049 61.3319 28.2796C60.6797 28.9468 60.3536 29.7715 60.3536 30.7535C60.3536 31.7356 60.6834 32.564 61.3432 33.2388C62.0029 33.906 62.8538 34.2396 63.8959 34.2396C64.818 34.2396 65.5639 33.9884 66.1337 33.4862C66.7034 32.9839 67.022 32.3504 67.0895 31.5857H63.7497V31.0234H67.6968Z" fill="white"/>
<path d="M75.679 33.6323C74.8918 34.4195 73.9322 34.8131 72.8002 34.8131C71.6682 34.8131 70.7086 34.4195 69.9214 33.6323C69.1342 32.8377 68.7406 31.8781 68.7406 30.7535C68.7406 29.629 69.1342 28.6732 69.9214 27.886C70.7086 27.0913 71.6682 26.694 72.8002 26.694C73.9322 26.694 74.8918 27.0913 75.679 27.886C76.4662 28.6732 76.8598 29.629 76.8598 30.7535C76.8598 31.8781 76.4662 32.8377 75.679 33.6323ZM70.3375 33.2275C71.0122 33.9022 71.8331 34.2396 72.8002 34.2396C73.7673 34.2396 74.5845 33.9022 75.2517 33.2275C75.9264 32.5453 76.2638 31.7206 76.2638 30.7535C76.2638 29.7864 75.9264 28.9655 75.2517 28.2908C74.5845 27.6086 73.7673 27.2675 72.8002 27.2675C71.8331 27.2675 71.0122 27.6086 70.3375 28.2908C69.6703 28.9655 69.3366 29.7864 69.3366 30.7535C69.3366 31.7206 69.6703 32.5453 70.3375 33.2275Z" fill="white"/>
<path d="M84.8597 33.6323C84.0726 34.4195 83.113 34.8131 81.9809 34.8131C80.8489 34.8131 79.8893 34.4195 79.1021 33.6323C78.315 32.8377 77.9214 31.8781 77.9214 30.7535C77.9214 29.629 78.315 28.6732 79.1021 27.886C79.8893 27.0913 80.8489 26.694 81.9809 26.694C83.113 26.694 84.0726 27.0913 84.8597 27.886C85.6469 28.6732 86.0405 29.629 86.0405 30.7535C86.0405 31.8781 85.6469 32.8377 84.8597 33.6323ZM79.5182 33.2275C80.1929 33.9022 81.0138 34.2396 81.9809 34.2396C82.948 34.2396 83.7652 33.9022 84.4324 33.2275C85.1071 32.5453 85.4445 31.7206 85.4445 30.7535C85.4445 29.7864 85.1071 28.9655 84.4324 28.2908C83.7652 27.6086 82.948 27.2675 81.9809 27.2675C81.0138 27.2675 80.1929 27.6086 79.5182 28.2908C78.851 28.9655 78.5174 29.7864 78.5174 30.7535C78.5174 31.7206 78.851 32.5453 79.5182 33.2275Z" fill="white"/>
<path d="M95.0413 31.0234V31.3271C95.0413 32.3091 94.6927 33.1376 93.9955 33.8123C93.2983 34.4795 92.3799 34.8131 91.2404 34.8131C90.0409 34.8131 89.0513 34.4233 88.2716 33.6436C87.492 32.8564 87.1021 31.8931 87.1021 30.7535C87.1021 29.614 87.4882 28.6544 88.2604 27.8747C89.0326 27.0876 90.0109 26.694 91.1954 26.694C91.9151 26.694 92.5748 26.8664 93.1746 27.2113C93.7818 27.5561 94.2504 28.0172 94.5803 28.5944L94.0517 28.9093C93.7893 28.4145 93.3995 28.0172 92.8822 27.7173C92.3724 27.4174 91.8102 27.2675 91.1954 27.2675C90.1758 27.2675 89.3362 27.6049 88.6765 28.2796C88.0242 28.9468 87.6981 29.7715 87.6981 30.7535C87.6981 31.7356 88.028 32.564 88.6877 33.2388C89.3474 33.906 90.1983 34.2396 91.2404 34.2396C92.1625 34.2396 92.9085 33.9884 93.4782 33.4862C94.048 32.9839 94.3666 32.3504 94.4341 31.5857H91.0942V31.0234H95.0413Z" fill="white"/>
<path d="M97.131 34.1271H100.842V34.6894H96.535V26.8177H97.131V34.1271Z" fill="white"/>
<path d="M102.677 34.1271H106.613V34.6894H102.081V26.8177H106.556V27.38H102.677V30.4387H106.275V31.0009H102.677V34.1271Z" fill="white"/>
<path d="M113.751 26.8177C114.456 26.8177 115.041 27.0501 115.505 27.5149C115.97 27.9797 116.203 28.5607 116.203 29.2579C116.203 29.9551 115.97 30.5361 115.505 31.0009C115.041 31.4583 114.456 31.6869 113.751 31.6869H111.671V34.6894H111.075V26.8177H113.751ZM113.751 31.1246C114.291 31.1246 114.733 30.9485 115.078 30.5961C115.431 30.2438 115.607 29.7977 115.607 29.2579C115.607 28.7106 115.431 28.2608 115.078 27.9085C114.733 27.5561 114.291 27.38 113.751 27.38H111.671V31.1246H113.751Z" fill="white"/>
<path d="M118.271 34.1271H121.982V34.6894H117.675V26.8177H118.271V34.1271Z" fill="white"/>
<path d="M128.737 34.6894L127.972 32.6877H124.025L123.26 34.6894H122.631L125.689 26.8177H126.319L129.367 34.6894H128.737ZM124.25 32.1255H127.758L126.004 27.5486L124.25 32.1255Z" fill="white"/>
<path d="M134.967 26.8177L132.1 31.4508V34.6894H131.504V31.4508L128.636 26.8177H129.311L131.808 30.8772L134.293 26.8177H134.967Z" fill="white"/>
<defs>
<clipPath id="clip0_11418_2131">
<rect width="28.1133" height="28.1133" fill="white" transform="translate(24.0879 10.793)"/>
</clipPath>
</defs>
</svg>
